<?xml version="1.0" encoding="utf-8"?>
<!-- Generator: Adobe Illustrator 24.0.3, SVG Export Plug-In . SVG Version: 6.00 Build 0)  -->
<svg version="1.1" id="Layer_1" xmlns="http://www.w3.org/2000/svg" xmlns:xlink="http://www.w3.org/1999/xlink" x="0px" y="0px"
	 viewBox="0 0 504.9 86.6" style="enable-background:new 0 0 504.9 86.6;" xml:space="preserve">
<style type="text/css">
	.st0{fill:url(#SVGID_1_);}
</style>
<title>Asset 5</title>
<g>
	<path d="M158.8,66.2V41.4c0-2.8-0.1-5.7-0.4-8.5c-0.2-2.1-0.8-4.2-1.8-6.2c-0.9-1.7-2.3-3-4-3.8c-2-0.9-4.3-1.3-6.5-1.3
		c-1.8,0-3.6,0.2-5.3,0.5c-1.4,0.3-2.8,0.8-4.2,1.3c-1,0.4-2,0.9-2.9,1.5c-0.8,0.5-1.3,0.9-1.6,1.2l-0.4,0.3l0.2,0.5
		c0.6,1.8,1,3.6,1.3,5.5c0.3,2.1,0.4,4.3,0.4,6.4v27.3h-4.8V41.4c0-2.8-0.1-5.7-0.4-8.5c-0.2-2.2-0.8-4.3-1.9-6.2
		c-0.9-1.7-2.4-3-4.1-3.8c-2.1-0.9-4.4-1.4-6.7-1.3c-2.6,0-5.1,0.1-7.7,0.5c-1.4,0.2-2.8,0.5-4.1,0.9l-0.4,0.2v43h-4.8V19.9
		c1.7-0.5,4-1,6.7-1.6c3.7-0.7,7.5-1,11.3-0.9c6,0,10.4,1.7,13,5.2l0.4,0.5l0.5-0.4c0.3-0.2,0.9-0.7,1.8-1.2
		c1.1-0.7,2.2-1.3,3.4-1.8c1.5-0.7,3.1-1.2,4.8-1.6c2-0.5,4-0.7,6.1-0.6c3-0.1,6,0.4,8.8,1.6c2.1,1,3.9,2.5,5.1,4.4
		c1.3,2.1,2.1,4.5,2.5,6.9c0.4,3,0.7,6,0.6,9v26.9h-4.9V66.2z"/>
	<path d="M178.9,84.2c-1.4,0-2.8-0.2-4.2-0.6c-0.9-0.3-1.5-0.5-1.8-0.6l0.9-3.8c0.4,0.1,0.8,0.3,1.5,0.5c1.3,0.4,2.6,0.6,3.9,0.6
		c1.7,0,3.4-0.2,5-0.6c1.5-0.4,2.9-1.1,4.1-2.1c1.3-1.1,2.4-2.3,3.2-3.7c1.1-1.8,2-3.7,2.7-5.7l0.1-0.3l-0.1-0.3
		c-2-3.8-4.1-7.9-6-12.1s-3.8-8.4-5.4-12.7c-1.7-4.2-3.2-8.6-4.6-12.8c-1.3-4-2.4-7.9-3.4-11.7h5.2c0.7,2.9,1.5,6.1,2.6,9.4
		c1.1,3.5,2.3,7.2,3.7,10.9s2.9,7.6,4.5,11.6s3.5,7.9,5.4,11.7l0.7,1.4l0.5-1.5c1.4-3.9,2.7-7.7,3.8-11.1c1.1-3.5,2.1-7,3-10.5
		s1.8-7,2.7-10.6c0.8-3.4,1.7-7.2,2.6-11.2h4.8c-2,8.9-4.3,17.6-6.8,26c-2.3,8.1-5.1,16.1-8.4,23.9c-1,2.5-2.3,5-3.7,7.3
		c-1.1,1.9-2.5,3.5-4.1,4.9c-1.5,1.3-3.3,2.2-5.2,2.8C183.7,83.9,181.3,84.2,178.9,84.2z"/>
	<path d="M267.5,42.3c0,3.6-0.5,7.2-1.7,10.6c-1,3-2.6,5.8-4.7,8.1c-2,2.2-4.4,4-7.1,5.2c-5.8,2.5-12.3,2.5-18.1,0
		c-2.7-1.2-5.1-3-7.1-5.2c-2.1-2.4-3.7-5.1-4.7-8.1c-1.1-3.4-1.7-7-1.7-10.6s0.5-7.2,1.7-10.6c1-3,2.6-5.8,4.7-8.1
		c2-2.2,4.4-4,7.1-5.2c5.8-2.5,12.3-2.5,18.1,0c2.7,1.2,5.1,3,7.1,5.2c2.1,2.4,3.7,5.2,4.7,8.1C267,35.2,267.5,38.7,267.5,42.3z
		 M260.9,42.3c0-6.2-1.4-11.1-4.3-14.7c-5.3-6.4-14.8-7.3-21.2-2c-0.7,0.6-1.4,1.3-2,2c-2.9,3.6-4.3,8.5-4.3,14.7s1.4,11.1,4.3,14.7
		c5.4,6.4,14.9,7.3,21.4,1.9c0.7-0.6,1.3-1.2,1.9-1.9C259.5,53.4,260.9,48.5,260.9,42.3L260.9,42.3z"/>
	<path d="M281.1,19.4c1.8-0.5,4.3-1.1,7.4-1.7c3.8-0.7,7.6-1,11.4-0.9c3.2-0.1,6.4,0.5,9.4,1.6c2.4,1,4.4,2.6,6,4.6
		c1.6,2.2,2.6,4.6,3.2,7.2c0.7,3,1,6.1,1,9.2V67h-6.2V41.4c0-3-0.2-5.9-0.7-8.9c-0.4-2.1-1.2-4.1-2.4-5.9c-1.1-1.5-2.6-2.7-4.4-3.3
		c-2.2-0.7-4.5-1.1-6.8-1c-2.5,0-5.1,0.1-7.6,0.5c-1.4,0.2-2.8,0.4-4.1,0.9V67h-6.2L281.1,19.4L281.1,19.4z"/>
	<path d="M355.8,68c-3.5,0.1-6.9-0.6-10.1-1.8c-2.8-1.1-5.3-2.9-7.3-5.2c-2-2.4-3.5-5.1-4.4-8.1c-1.1-3.4-1.6-6.9-1.5-10.4
		c0-3.6,0.5-7.2,1.6-10.6c0.9-3,2.5-5.8,4.5-8.2c2-2.3,4.4-4.1,7.1-5.3c3-1.3,6.2-1.9,9.4-1.9c2.5,0,5,0.2,7.5,0.7
		c1.9,0.3,3.7,0.9,5.4,1.7l-1.6,5.3c-1.4-0.7-2.8-1.2-4.3-1.5c-2.1-0.4-4.2-0.6-6.4-0.6c-5.5,0-9.6,1.8-12.4,5.3s-4.2,8.5-4.2,15
		c0,2.7,0.3,5.4,1,8.1c0.6,2.3,1.6,4.4,3.1,6.3c1.5,1.8,3.4,3.2,5.5,4.1c2.6,1.1,5.4,1.6,8.2,1.5c2.3,0.1,4.5-0.3,6.7-0.9
		c1.4-0.4,2.7-0.9,4-1.6l1.3,5.3c-1.7,0.8-3.5,1.5-5.4,1.9C360.9,67.7,358.3,68,355.8,68z"/>
	<path d="M394.3,16.5c2.8-0.1,5.6,0.4,8.2,1.4c2.1,0.8,4,2.1,5.5,3.8c1.4,1.7,2.5,3.6,3.1,5.8c0.6,2.4,1,4.8,1,7.2v31.1
		c-0.9,0.3-1.8,0.5-2.8,0.6c-1.2,0.2-2.6,0.5-4.2,0.7s-3.4,0.5-5.3,0.6c-1.9,0.1-3.9,0.2-6,0.2c-2.4,0-4.8-0.3-7.2-0.9
		c-2.1-0.5-4-1.4-5.7-2.7c-1.6-1.3-3-2.9-3.8-4.8c-1-2.2-1.5-4.7-1.4-7.1c-0.1-2.4,0.5-4.7,1.5-6.9c1-1.9,2.5-3.5,4.3-4.7
		c2-1.3,4.2-2.2,6.6-2.7c2.7-0.6,5.5-0.9,8.3-0.9c0.9,0,1.8,0,2.8,0.1s1.9,0.2,2.9,0.4c1,0.2,1.7,0.3,2.4,0.5
		c0.5,0.1,0.9,0.2,1.4,0.4v-3c0-1.7-0.1-3.3-0.4-5c-0.2-1.6-0.8-3.1-1.7-4.4c-0.9-1.3-2.2-2.4-3.6-3.1c-1.9-0.9-4-1.3-6.1-1.2
		c-2.7-0.1-5.5,0.2-8.1,0.8c-1.8,0.5-3.1,0.9-3.9,1.2l-0.9-5.4c1.6-0.7,3.3-1.1,5-1.4C388.8,16.7,391.5,16.5,394.3,16.5z
		 M394.8,62.4c2.4,0,4.5-0.1,6.3-0.2c1.6-0.1,3.1-0.3,4.6-0.6V44.2c-1.1-0.4-2.2-0.8-3.3-1c-2.1-0.4-4.2-0.6-6.3-0.5
		c-1.6,0-3.2,0.1-4.8,0.3c-1.6,0.2-3.1,0.7-4.6,1.4c-1.4,0.7-2.6,1.7-3.4,3c-0.9,1.5-1.4,3.2-1.3,5c0,1.6,0.3,3.2,0.9,4.7
		c0.6,1.2,1.5,2.3,2.6,3c1.2,0.8,2.6,1.4,4,1.7C391.3,62.2,393,62.4,394.8,62.4L394.8,62.4z"/>
	<path d="M444.7,16.7c1.9,0,3.9,0.2,5.8,0.5c1.3,0.2,2.5,0.5,3.8,1l-1.3,5.3c-1-0.4-2-0.7-3.1-0.8c-2-0.3-4.1-0.5-6.1-0.4
		c-2.2,0-4.3,0.1-6.4,0.6c-1.1,0.2-2.2,0.6-3.2,1V67H428V20c2.1-0.9,4.3-1.6,6.6-2.1C437.8,17,441.2,16.6,444.7,16.7z"/>
	<path d="M460.7,42.2c-0.1-3.8,0.6-7.7,1.9-11.3c1.1-3,2.7-5.7,4.9-8.1c1.9-2.1,4.3-3.7,6.9-4.8c2.5-1,5.2-1.6,8-1.6
		c6,0,10.9,2,14.4,5.9s5.4,10,5.4,18.2c0,0.5,0,1,0,1.5s-0.1,1-0.1,1.4h-34.6c0.2,6,1.7,10.6,4.5,13.9c2.8,3.3,7.2,4.9,13.3,4.9
		c2.7,0.1,5.4-0.3,8-1c1.5-0.4,2.9-1,4.3-1.6l1.1,5.3c-1.6,0.8-3.3,1.4-5,1.8c-2.8,0.7-5.7,1.1-8.6,1c-3.8,0.1-7.5-0.6-11-1.9
		c-2.9-1.2-5.5-3-7.5-5.3c-2-2.4-3.5-5.1-4.3-8.1C461.1,49.2,460.7,45.7,460.7,42.2z M495.7,38.3c-0.1-5.2-1.3-9.2-3.6-12
		c-2.3-2.8-5.6-4.3-9.8-4.3c-2.1,0-4.1,0.4-6,1.3c-1.7,1-3.3,2.2-4.5,3.7c-1.3,1.5-2.4,3.3-3,5.2c-0.7,2-1.2,4.1-1.3,6.2L495.7,38.3
		z"/>
	
		<linearGradient id="SVGID_1_" gradientUnits="userSpaceOnUse" x1="43.6517" y1="1150.3271" x2="43.6517" y2="1067.6472" gradientTransform="matrix(1 0 0 1 0 -1051.9144)">
		<stop  offset="0" style="stop-color:#F0B428"/>
		<stop  offset="0.51" style="stop-color:#E96464"/>
		<stop  offset="1" style="stop-color:#E72282"/>
	</linearGradient>
	<path class="st0" d="M59.1,4c-5.7,0-11.2,2-15.5,5.6C39.2,6,33.7,4,28.1,4c-14.5,0-26,12.6-26,28.1c0,6.4,2.1,12.6,6,17.8
		c2.1,2.8,11.5,13.2,28.5,31.2l0.4,0.4c3.8,3.6,9.8,3.5,13.4-0.3l0,0l0.1-0.1c17.1-18.2,26.6-28.5,28.7-31.2c4-5.1,6.1-11.3,6-17.8
		C85.1,16.7,73.6,4,59.1,4z M43.6,18.9c2.6,3.8,4.1,8.4,4.1,13c0,2.7-1.9,4.7-4.1,4.7s-4.1-2.1-4.1-4.7C39.6,27.3,41,22.8,43.6,18.9
		z M74.2,46c-1.9,2.4-11.4,12.8-28.3,30.6c-1.2,1.3-3.1,1.3-4.4,0.2l-0.1-0.1l-0.2-0.2C24.4,58.8,15,48.4,13.1,46
		c-3-4.1-4.6-9-4.6-14c0-12.2,8.8-21.8,19.6-21.8c4,0,8,1.4,11.1,3.9c-4,5.1-6.1,11.3-6,17.8C33.2,38,37.8,43,43.6,43S54,38,54,31.9
		c0-6.4-2.1-12.7-6-17.8c3.2-2.4,7.1-3.7,11.1-3.7c10.8,0,19.6,9.6,19.6,21.5C78.8,37,77.2,42,74.2,46z"/>
</g>
</svg>
